<?xml version="1.0" encoding="UTF-8"?>
<!DOCTYPE svg  PUBLIC '-//W3C//DTD SVG 1.1//EN'  'http://www.w3.org/Graphics/SVG/1.1/DTD/svg11.dtd'>
<svg version="1.1" viewBox="0 0 80 80" xmlns="http://www.w3.org/2000/svg" xmlnsxl="http://www.w3.org/1999/xlink">
    <defs>
        <linearGradient id="a" x2="1" gradientTransform="translate(7.1054e-15 80) rotate(-45) scale(113.14)" gradientUnits="userSpaceOnUse">
            <stop stop-color="#8a8a8a" offset="0"/>
            <stop stop-color="#8a8a8a" offset=".32322"/>
            <stop stop-color="#8a8a8a" offset="1"/>
        </linearGradient>
    </defs>
    <g fill="none">
        <title>Canvas 1</title>
        <g>
            <title>Layer 1</title>
            <g>
                <title>Icon-Architecture/64/Arch_Amazon-Cognito_64</title>
                <g>
                    <title>Icon-Architecture-BG/64/Security-Identity-Compliance</title>
                    <g>
                        <title>Rectangle</title>
                        <rect width="80" height="80" fill="url(#a)"/>
                    </g>
                </g>
                <g>
                    <title>Amazon-Cognito_Icon_64_Squid</title>
                    <path d="m16.964 35.808h12.905v-1.9825h-12.905zm44.412 14.423 1.4037 1.4017-7.3719 7.3612c-0.19457 0.1933-0.4487 0.29044-0.70184 0.29044-0.25414 0-0.50827-0.09714-0.70184-0.29044l-3.7088-3.7024 1.4037-1.4017 3.0069 3.0016zm4.5685 5.4629c-0.22634 1.8636-0.98477 3.5973-2.1969 5.0148-0.86068 1.0071-1.9477 1.8398-3.1429 2.4068-1.6032 0.7603-3.3842 1.0488-5.1581 0.83266-1.7253-0.21015-3.3514-0.89016-4.7064-1.9657-2.6029-2.0668-3.9172-5.2716-3.5172-8.5735 0.37822-3.1205 2.2693-5.8425 5.0579-7.2819 1.3362-0.68893 2.7994-1.0428 4.2895-1.0428 0.38219 0 0.76736 0.02379 1.1515 0.07038 3.1131 0.37966 5.8282 2.2819 7.2597 5.0882 0.8587 1.6832 1.1912 3.5686 0.96293 5.451zm0.80608-6.3501c-1.7323-3.3961-5.0182-5.6978-8.7885-6.1568-2.2803-0.27855-4.5585 0.12986-6.5926 1.1786-3.3732 1.7407-5.6604 5.0327-6.1181 8.8054-0.48246 3.9899 1.1069 7.8647 4.2538 10.364 1.641 1.3025 3.6125 2.1263 5.7002 2.381 0.4626 0.056504 0.92521 0.08426 1.3868 0.08426 1.6797 0 3.3385-0.37074 4.8643-1.0944 1.4464-0.68596 2.7617-1.6931 3.8011-2.9104 1.4662-1.7149 2.3855-3.8114 2.6585-6.0636 0.27597-2.275-0.12707-4.5529-1.1654-6.588zm-39.859-7.5882h3.9708v-1.9825h-3.9708zm-9.9271 0h7.9417v-1.9825h-7.9417zm-0.8577-25.773h44.402c1.1694 0 2.1204 1.1568 2.1204 2.5783v7.3344h-2.9781v-4.9563c0-0.54718-0.44374-0.99127-0.99271-0.99127h-22.832c-0.54897 0-0.99271 0.44409-0.99271 0.99127v4.9563h-20.847v-7.3344c0-1.3977 0.97187-2.5783 2.1204-2.5783zm31.15 9.6252c2.3051 0 4.1803 1.8537 4.1803 4.1316 0 1.5018-0.82891 2.8836-2.1631 3.6072-1.2667 0.68695-2.7935 0.67803-4.0433 9.92e-4 -1.3292-0.72561-2.1542-2.1074-2.1542-3.6082 0-2.2779 1.8742-4.1316 4.1803-4.1316zm-33.271 21.501v-19.231h20.847v16.852c0 0.54817 0.44374 0.99127 0.99271 0.99127h10.378v-1.9825h-8.2911c0.086367-3.9671 2.724-7.3939 6.5221-8.4882 1.7551 0.81978 3.8507 0.82771 5.6326-9.93e-4 2.1621 0.6245 4.0542 2.0688 5.2266 4.0047l1.6985-1.027c-1.2032-1.9835-3.0288-3.5319-5.1462-4.432 0.99271-1.1003 1.5764-2.5317 1.5764-4.0553 0-3.3713-2.7667-6.1141-6.1657-6.1141-3.4 0-6.1657 2.7428-6.1657 6.1141 0 1.5176 0.57776 2.9441 1.5635 4.0444-2.6535 1.1162-4.7263 3.2087-5.8362 5.789v-17.643h20.847v15.86h1.9854v-9.9127h2.9781l9.94e-4 14.869h1.9854l-9.95e-4 -24.186c0-2.5148-1.8415-4.5608-4.1059-4.5608h-44.402c-2.2644 0-4.1059 2.046-4.1059 4.5608v28.548c0 2.5148 1.8415 4.5598 4.1059 4.5598h26.668v-1.9825h-26.668c-1.1486 0-2.1204-1.1796-2.1204-2.5773z" fill="#fff"/>
                </g>
            </g>
        </g>
    </g>
</svg>
